# xmcd
#
# Track frame offsets: 
#        150
#        10122
#        36985
#        58505
#        76467
#        105302
#        126590
#        145940
#        170052
#        190577
#        219505
#        241627
#
# Disc length: 3614 seconds
#
# Revision: 11
# Processed by: cddbd v1.5.2PL0 Copyright (c) Steve Scherf et al.
# Submitted via: ExactAudioCopy v0.95b3
#
DISCID=9e0e1c0c
DTITLE=Various Artist - No Room for Squares [CD1]
DYEAR=1900
DGENRE=Jazz
TTITLE0=Art Blakey - Harlem's Disciples
TTITLE1=Sonny Rollins - Asiatic Raes
TTITLE2=Horace Silver - Finger Poppin'
TTITLE3=The Three Sounds - Besame Mucho
TTITLE4=Walter Davis Jr. - Minor Mind
TTITLE5=Freddie Redd - Theme for Sister Salvation
TTITLE6=Duke Pearson - Bluebird of Happiness
TTITLE7=Lou Donaldson - Truth
TTITLE8=Horace Parlan - Us Three
TTITLE9=Freddie Hubbard - Gypsy Blue
TTITLE10=Tina Brooks - True Blue
TTITLE11=Art Taylor - Syeeda's Song Flute
EXTD=A Blue Note Sampler Featuring 4000 Series ID3G: 8
EXTT0=
EXTT1=
EXTT2=
EXTT3=
EXTT4=
EXTT5=
EXTT6=
EXTT7=
EXTT8=
EXTT9=
EXTT10=
EXTT11=
PLAYORDER=
